<?xml version="1.0" encoding="utf-8"?>
<!-- Generator: Adobe Illustrator 27.5.0, SVG Export Plug-In . SVG Version: 6.00 Build 0)  -->
<svg version="1.1" xmlns="http://www.w3.org/2000/svg" xmlns:xlink="http://www.w3.org/1999/xlink" x="0px" y="0px"
	 viewBox="0 0 750 500" style="enable-background:new 0 0 750 500;" xml:space="preserve">
<g id="BACKGROUND">
	<rect style="fill:#191F2F;" width="750" height="500"/>
</g>
<g id="OBJECTS">
	<g>
		<defs>
			<rect id="SVGID_1_" width="750" height="500"/>
		</defs>
		<clipPath id="SVGID_00000082354861564740674950000005675827328322889139_">
			<use xlink:href="#SVGID_1_"  style="overflow:visible;"/>
		</clipPath>
		<g style="clip-path:url(#SVGID_00000082354861564740674950000005675827328322889139_);">
			<circle style="fill:#29344C;" cx="81.297" cy="451.985" r="88.406"/>
			<circle style="fill:#29344C;" cx="573.686" cy="-23.198" r="88.406"/>
			<path style="fill:#29344C;" d="M365.551,113.144c-39.47,0-71.468,31.997-71.468,71.468c0,39.471,31.997,71.468,71.468,71.468
				c39.471,0,71.468-31.997,71.468-71.468C437.019,145.141,405.022,113.144,365.551,113.144z M365.551,217.006
				c-17.891,0-32.394-14.503-32.394-32.394c0-17.891,14.503-32.394,32.394-32.394c17.891,0,32.394,14.503,32.394,32.394
				C397.945,202.503,383.442,217.006,365.551,217.006z"/>
			<rect x="607.602" y="282.48" style="fill:#29344C;" width="142.398" height="147.314"/>
			<rect y="92.562" style="fill:#29344C;" width="148.724" height="153.858"/>
			<g>
				<polygon style="fill:#7462D1;" points="448.793,450.123 448.793,484.968 413.941,484.968 				"/>
				<g>
					<polygon style="fill:#7462D1;" points="413.941,450.123 413.941,484.968 379.089,484.968 					"/>
					<polygon style="fill:#7462D1;" points="379.089,450.123 379.089,484.968 344.237,484.968 					"/>
				</g>
			</g>
			<path style="fill:none;stroke:#273B70;stroke-width:20;stroke-miterlimit:10;" d="M-5.343,142.408h333.864
				c47.76,0,86.476-38.717,86.476-86.477l0,0c0-47.76-38.717-86.476-86.476-86.476"/>
			<path style="fill:none;stroke:#273B70;stroke-width:20;stroke-miterlimit:10;" d="M524.151-8.899v180.717
				c0,47.76,38.717,86.476,86.477,86.476l0,0c47.76,0,86.477-38.717,86.477-86.476V-9.896"/>
			<path style="fill:none;stroke:#273B70;stroke-width:20;stroke-miterlimit:10;" d="M842.947,315.311H362.901
				c-63.227,0-114.482,51.256-114.482,114.482l0,0c0,63.227,51.255,114.482,114.482,114.482"/>
			<circle style="fill:#D335CE;" cx="592.188" cy="449.638" r="96.033"/>
			<path style="fill:#7462D1;" d="M58.33,324.335v240.546h72.399V324.335c0-19.992-16.207-36.2-36.2-36.2l0,0
				C74.538,288.135,58.33,304.342,58.33,324.335z"/>
			<path style="fill:#7462D1;" d="M602.912,146.676h240.546V74.277H602.912c-19.992,0-36.2,16.207-36.2,36.2l0,0
				C566.712,130.469,582.919,146.676,602.912,146.676z"/>
			<path style="fill:#E7A43F;" d="M469.699,340.559c-45.089-0.197-81.8,36.196-81.997,81.285l163.282,0.712
				C551.181,377.467,514.788,340.756,469.699,340.559z"/>
			<g>
				<polygon style="fill:#FFFFFF;" points="670.717,342.97 646.187,342.97 663.533,325.624 652.255,314.347 634.909,331.693 
					634.909,307.162 618.961,307.162 618.961,331.693 601.615,314.347 590.338,325.624 607.683,342.97 583.153,342.97 
					583.153,358.919 607.683,358.919 590.338,376.265 601.615,387.542 618.961,370.196 618.961,394.727 634.909,394.727 
					634.909,370.196 652.255,387.542 663.533,376.265 646.187,358.919 670.717,358.919 				"/>
			</g>
			<g>
				<polygon style="fill:#7462D1;" points="287.634,-7.599 262.932,-7.599 280.399,-25.066 269.043,-36.422 251.576,-18.955 
					251.576,-43.657 235.515,-43.657 235.515,-18.955 218.048,-36.422 206.692,-25.066 224.159,-7.599 199.457,-7.599 
					199.457,8.461 224.159,8.461 206.692,25.928 218.048,37.285 235.515,19.818 235.515,44.52 251.576,44.52 251.576,19.818 
					269.043,37.285 280.399,25.928 262.932,8.461 287.634,8.461 				"/>
			</g>
			<g>
				
					<ellipse transform="matrix(0.9476 -0.3195 0.3195 0.9476 -103.1041 52.5206)" style="fill:#D335CE;" cx="108.549" cy="340.558" rx="21.423" ry="21.423"/>
				
					<ellipse transform="matrix(0.9218 -0.3877 0.3877 0.9218 -120.202 85.3416)" style="fill:#D335CE;" cx="151.395" cy="340.558" rx="21.423" ry="21.423"/>
				
					<ellipse transform="matrix(0.2277 -0.9737 0.9737 0.2277 -181.5964 452.1649)" style="fill:#D335CE;" cx="194.24" cy="340.558" rx="21.423" ry="21.423"/>
			</g>
			<path style="fill:#E7A43F;" d="M57.081,52.204c0,31.518-25.556,57.069-57.081,57.069v68.104
				c69.145,0,125.198-56.042,125.198-125.174H57.081z"/>
			
				<ellipse transform="matrix(0.008 -1 1 0.008 -68.3855 249.5383)" style="fill:#FFFFFF;" cx="91.575" cy="159.236" rx="32.107" ry="32.113"/>
			<g>
				<path style="fill:#FFFFFF;" d="M175.392,28.292c0,1.101,0.892,1.993,1.993,1.993s1.993-0.892,1.993-1.993
					c0-1.101-0.892-1.993-1.993-1.993S175.392,27.192,175.392,28.292z"/>
				<path style="fill:#FFFFFF;" d="M155.748,28.292c0,1.101,0.892,1.993,1.993,1.993c1.101,0,1.993-0.892,1.993-1.993
					c0-1.101-0.892-1.993-1.993-1.993C156.641,26.299,155.748,27.192,155.748,28.292z"/>
				<circle style="fill:#FFFFFF;" cx="138.098" cy="28.292" r="1.993"/>
				<path style="fill:#FFFFFF;" d="M116.461,28.292c0,1.101,0.892,1.993,1.993,1.993c1.101,0,1.993-0.892,1.993-1.993
					c0-1.101-0.892-1.993-1.993-1.993C117.353,26.299,116.461,27.192,116.461,28.292z"/>
				<path style="fill:#FFFFFF;" d="M96.817,28.292c0,1.101,0.892,1.993,1.993,1.993s1.993-0.892,1.993-1.993
					c0-1.101-0.892-1.993-1.993-1.993S96.817,27.192,96.817,28.292z"/>
				<path style="fill:#FFFFFF;" d="M175.392,46.513c0,1.101,0.892,1.993,1.993,1.993s1.993-0.892,1.993-1.993
					c0-1.101-0.892-1.993-1.993-1.993S175.392,45.412,175.392,46.513z"/>
				<path style="fill:#FFFFFF;" d="M155.748,46.513c0,1.101,0.892,1.993,1.993,1.993c1.101,0,1.993-0.892,1.993-1.993
					c0-1.101-0.892-1.993-1.993-1.993C156.641,44.52,155.748,45.412,155.748,46.513z"/>
				<circle style="fill:#FFFFFF;" cx="138.098" cy="46.513" r="1.993"/>
				<path style="fill:#FFFFFF;" d="M116.461,46.513c0,1.101,0.892,1.993,1.993,1.993c1.101,0,1.993-0.892,1.993-1.993
					c0-1.101-0.892-1.993-1.993-1.993C117.353,44.52,116.461,45.412,116.461,46.513z"/>
				<path style="fill:#FFFFFF;" d="M96.817,46.513c0,1.101,0.892,1.993,1.993,1.993s1.993-0.892,1.993-1.993
					c0-1.101-0.892-1.993-1.993-1.993S96.817,45.412,96.817,46.513z"/>
				<path style="fill:#FFFFFF;" d="M175.392,64.733c0,1.101,0.892,1.993,1.993,1.993s1.993-0.892,1.993-1.993
					c0-1.101-0.892-1.993-1.993-1.993S175.392,63.632,175.392,64.733z"/>
				<path style="fill:#FFFFFF;" d="M155.748,64.733c0,1.101,0.892,1.993,1.993,1.993c1.101,0,1.993-0.892,1.993-1.993
					c0-1.101-0.892-1.993-1.993-1.993C156.641,62.74,155.748,63.632,155.748,64.733z"/>
				<circle style="fill:#FFFFFF;" cx="138.098" cy="64.733" r="1.993"/>
				<path style="fill:#FFFFFF;" d="M116.461,64.733c0,1.101,0.892,1.993,1.993,1.993c1.101,0,1.993-0.892,1.993-1.993
					c0-1.101-0.892-1.993-1.993-1.993C117.353,62.74,116.461,63.632,116.461,64.733z"/>
				<path style="fill:#FFFFFF;" d="M96.817,64.733c0,1.101,0.892,1.993,1.993,1.993s1.993-0.892,1.993-1.993
					c0-1.101-0.892-1.993-1.993-1.993S96.817,63.632,96.817,64.733z"/>
				<path style="fill:#FFFFFF;" d="M175.392,82.953c0,1.101,0.892,1.993,1.993,1.993s1.993-0.892,1.993-1.993
					c0-1.101-0.892-1.993-1.993-1.993S175.392,81.852,175.392,82.953z"/>
				<path style="fill:#FFFFFF;" d="M155.748,82.953c0,1.101,0.892,1.993,1.993,1.993c1.101,0,1.993-0.892,1.993-1.993
					c0-1.101-0.892-1.993-1.993-1.993C156.641,80.96,155.748,81.852,155.748,82.953z"/>
				<path style="fill:#FFFFFF;" d="M136.105,82.953c0,1.101,0.892,1.993,1.993,1.993c1.101,0,1.993-0.892,1.993-1.993
					c0-1.101-0.892-1.993-1.993-1.993C136.997,80.96,136.105,81.852,136.105,82.953z"/>
				<path style="fill:#FFFFFF;" d="M116.461,82.953c0,1.101,0.892,1.993,1.993,1.993c1.101,0,1.993-0.892,1.993-1.993
					c0-1.101-0.892-1.993-1.993-1.993C117.353,80.96,116.461,81.852,116.461,82.953z"/>
				<path style="fill:#FFFFFF;" d="M96.817,82.953c0,1.101,0.892,1.993,1.993,1.993s1.993-0.892,1.993-1.993
					c0-1.101-0.892-1.993-1.993-1.993S96.817,81.852,96.817,82.953z"/>
				<path style="fill:#FFFFFF;" d="M175.392,101.173c0,1.101,0.892,1.993,1.993,1.993s1.993-0.892,1.993-1.993
					c0-1.101-0.892-1.993-1.993-1.993S175.392,100.072,175.392,101.173z"/>
				<path style="fill:#FFFFFF;" d="M155.748,101.173c0,1.101,0.892,1.993,1.993,1.993c1.101,0,1.993-0.892,1.993-1.993
					c0-1.101-0.892-1.993-1.993-1.993C156.641,99.18,155.748,100.072,155.748,101.173z"/>
				<path style="fill:#FFFFFF;" d="M136.105,101.173c0,1.101,0.892,1.993,1.993,1.993c1.101,0,1.993-0.892,1.993-1.993
					c0-1.101-0.892-1.993-1.993-1.993C136.997,99.18,136.105,100.072,136.105,101.173z"/>
				<path style="fill:#FFFFFF;" d="M116.461,101.173c0,1.101,0.892,1.993,1.993,1.993c1.101,0,1.993-0.892,1.993-1.993
					c0-1.101-0.892-1.993-1.993-1.993C117.353,99.18,116.461,100.072,116.461,101.173z"/>
				<path style="fill:#FFFFFF;" d="M96.817,101.173c0,1.101,0.892,1.993,1.993,1.993s1.993-0.892,1.993-1.993
					c0-1.101-0.892-1.993-1.993-1.993S96.817,100.072,96.817,101.173z"/>
			</g>
			<g>
				<path style="fill:#FFFFFF;" d="M733.536,103.484c0,1.101,0.892,1.993,1.993,1.993s1.993-0.892,1.993-1.993
					c0-1.101-0.892-1.993-1.993-1.993S733.536,102.383,733.536,103.484z"/>
				<path style="fill:#FFFFFF;" d="M713.893,103.484c0,1.101,0.892,1.993,1.993,1.993s1.993-0.892,1.993-1.993
					c0-1.101-0.892-1.993-1.993-1.993S713.893,102.383,713.893,103.484z"/>
				<circle style="fill:#FFFFFF;" cx="696.242" cy="103.484" r="1.993"/>
				<path style="fill:#FFFFFF;" d="M674.605,103.484c0,1.101,0.892,1.993,1.993,1.993s1.993-0.892,1.993-1.993
					c0-1.101-0.892-1.993-1.993-1.993S674.605,102.383,674.605,103.484z"/>
				<path style="fill:#FFFFFF;" d="M654.962,103.484c0,1.101,0.892,1.993,1.993,1.993s1.993-0.892,1.993-1.993
					c0-1.101-0.892-1.993-1.993-1.993S654.962,102.383,654.962,103.484z"/>
				<path style="fill:#FFFFFF;" d="M733.536,121.704c0,1.101,0.892,1.993,1.993,1.993s1.993-0.892,1.993-1.993
					c0-1.101-0.892-1.993-1.993-1.993S733.536,120.603,733.536,121.704z"/>
				<path style="fill:#FFFFFF;" d="M713.893,121.704c0,1.101,0.892,1.993,1.993,1.993s1.993-0.892,1.993-1.993
					c0-1.101-0.892-1.993-1.993-1.993S713.893,120.603,713.893,121.704z"/>
				<circle style="fill:#FFFFFF;" cx="696.242" cy="121.704" r="1.993"/>
				<path style="fill:#FFFFFF;" d="M674.605,121.704c0,1.101,0.892,1.993,1.993,1.993s1.993-0.892,1.993-1.993
					c0-1.101-0.892-1.993-1.993-1.993S674.605,120.603,674.605,121.704z"/>
				<path style="fill:#FFFFFF;" d="M654.962,121.704c0,1.101,0.892,1.993,1.993,1.993s1.993-0.892,1.993-1.993
					c0-1.101-0.892-1.993-1.993-1.993S654.962,120.603,654.962,121.704z"/>
				<path style="fill:#FFFFFF;" d="M733.536,139.924c0,1.101,0.892,1.993,1.993,1.993s1.993-0.892,1.993-1.993
					s-0.892-1.993-1.993-1.993S733.536,138.823,733.536,139.924z"/>
				<path style="fill:#FFFFFF;" d="M713.893,139.924c0,1.101,0.892,1.993,1.993,1.993s1.993-0.892,1.993-1.993
					s-0.892-1.993-1.993-1.993S713.893,138.823,713.893,139.924z"/>
				<circle style="fill:#FFFFFF;" cx="696.242" cy="139.924" r="1.993"/>
				<path style="fill:#FFFFFF;" d="M674.605,139.924c0,1.101,0.892,1.993,1.993,1.993s1.993-0.892,1.993-1.993
					s-0.892-1.993-1.993-1.993S674.605,138.823,674.605,139.924z"/>
				<path style="fill:#FFFFFF;" d="M654.962,139.924c0,1.101,0.892,1.993,1.993,1.993s1.993-0.892,1.993-1.993
					s-0.892-1.993-1.993-1.993S654.962,138.823,654.962,139.924z"/>
				<path style="fill:#FFFFFF;" d="M733.536,158.144c0,1.101,0.892,1.993,1.993,1.993s1.993-0.892,1.993-1.993
					s-0.892-1.993-1.993-1.993S733.536,157.044,733.536,158.144z"/>
				<path style="fill:#FFFFFF;" d="M713.893,158.144c0,1.101,0.892,1.993,1.993,1.993s1.993-0.892,1.993-1.993
					s-0.892-1.993-1.993-1.993S713.893,157.044,713.893,158.144z"/>
				<path style="fill:#FFFFFF;" d="M694.249,158.144c0,1.101,0.892,1.993,1.993,1.993s1.993-0.892,1.993-1.993
					s-0.892-1.993-1.993-1.993S694.249,157.044,694.249,158.144z"/>
				<path style="fill:#FFFFFF;" d="M674.605,158.144c0,1.101,0.892,1.993,1.993,1.993s1.993-0.892,1.993-1.993
					s-0.892-1.993-1.993-1.993S674.605,157.044,674.605,158.144z"/>
				<path style="fill:#FFFFFF;" d="M654.962,158.144c0,1.101,0.892,1.993,1.993,1.993s1.993-0.892,1.993-1.993
					s-0.892-1.993-1.993-1.993S654.962,157.044,654.962,158.144z"/>
				<path style="fill:#FFFFFF;" d="M733.536,176.364c0,1.101,0.892,1.993,1.993,1.993s1.993-0.892,1.993-1.993
					c0-1.101-0.892-1.993-1.993-1.993S733.536,175.264,733.536,176.364z"/>
				<path style="fill:#FFFFFF;" d="M713.893,176.364c0,1.101,0.892,1.993,1.993,1.993s1.993-0.892,1.993-1.993
					c0-1.101-0.892-1.993-1.993-1.993S713.893,175.264,713.893,176.364z"/>
				<path style="fill:#FFFFFF;" d="M694.249,176.364c0,1.101,0.892,1.993,1.993,1.993s1.993-0.892,1.993-1.993
					c0-1.101-0.892-1.993-1.993-1.993S694.249,175.264,694.249,176.364z"/>
				<path style="fill:#FFFFFF;" d="M674.605,176.364c0,1.101,0.892,1.993,1.993,1.993s1.993-0.892,1.993-1.993
					c0-1.101-0.892-1.993-1.993-1.993S674.605,175.264,674.605,176.364z"/>
				<path style="fill:#FFFFFF;" d="M654.962,176.364c0,1.101,0.892,1.993,1.993,1.993s1.993-0.892,1.993-1.993
					c0-1.101-0.892-1.993-1.993-1.993S654.962,175.264,654.962,176.364z"/>
			</g>
			<g>
				<path style="fill:#FFFFFF;" d="M278.124,467.545c0,1.101,0.892,1.993,1.993,1.993c1.101,0,1.993-0.892,1.993-1.993
					c0-1.101-0.892-1.993-1.993-1.993C279.016,465.552,278.124,466.445,278.124,467.545z"/>
				<circle style="fill:#FFFFFF;" cx="260.473" cy="467.545" r="1.993"/>
				<path style="fill:#FFFFFF;" d="M238.836,467.545c0,1.101,0.892,1.993,1.993,1.993c1.101,0,1.993-0.892,1.993-1.993
					c0-1.101-0.892-1.993-1.993-1.993C239.729,465.552,238.836,466.445,238.836,467.545z"/>
				<path style="fill:#FFFFFF;" d="M219.193,467.545c0,1.101,0.892,1.993,1.993,1.993c1.101,0,1.993-0.892,1.993-1.993
					c0-1.101-0.892-1.993-1.993-1.993C220.085,465.552,219.193,466.445,219.193,467.545z"/>
				<path style="fill:#FFFFFF;" d="M199.549,467.545c0,1.101,0.892,1.993,1.993,1.993s1.993-0.892,1.993-1.993
					c0-1.101-0.892-1.993-1.993-1.993S199.549,466.445,199.549,467.545z"/>
				<path style="fill:#FFFFFF;" d="M278.124,485.765c0,1.101,0.892,1.993,1.993,1.993c1.101,0,1.993-0.892,1.993-1.993
					c0-1.101-0.892-1.993-1.993-1.993C279.016,483.773,278.124,484.665,278.124,485.765z"/>
				<circle style="fill:#FFFFFF;" cx="260.473" cy="485.765" r="1.993"/>
				<path style="fill:#FFFFFF;" d="M238.836,485.765c0,1.101,0.892,1.993,1.993,1.993c1.101,0,1.993-0.892,1.993-1.993
					c0-1.101-0.892-1.993-1.993-1.993C239.729,483.773,238.836,484.665,238.836,485.765z"/>
				<path style="fill:#FFFFFF;" d="M219.193,485.765c0,1.101,0.892,1.993,1.993,1.993c1.101,0,1.993-0.892,1.993-1.993
					c0-1.101-0.892-1.993-1.993-1.993C220.085,483.773,219.193,484.665,219.193,485.765z"/>
				<path style="fill:#FFFFFF;" d="M199.549,485.765c0,1.101,0.892,1.993,1.993,1.993s1.993-0.892,1.993-1.993
					c0-1.101-0.892-1.993-1.993-1.993S199.549,484.665,199.549,485.765z"/>
				<path style="fill:#FFFFFF;" d="M278.124,503.986c0,1.101,0.892,1.993,1.993,1.993c1.101,0,1.993-0.892,1.993-1.993
					c0-1.101-0.892-1.993-1.993-1.993C279.016,501.993,278.124,502.885,278.124,503.986z"/>
				<circle style="fill:#FFFFFF;" cx="260.473" cy="503.986" r="1.993"/>
				<path style="fill:#FFFFFF;" d="M238.836,503.986c0,1.101,0.892,1.993,1.993,1.993c1.101,0,1.993-0.892,1.993-1.993
					c0-1.101-0.892-1.993-1.993-1.993C239.729,501.993,238.836,502.885,238.836,503.986z"/>
				<path style="fill:#FFFFFF;" d="M219.193,503.986c0,1.101,0.892,1.993,1.993,1.993c1.101,0,1.993-0.892,1.993-1.993
					c0-1.101-0.892-1.993-1.993-1.993C220.085,501.993,219.193,502.885,219.193,503.986z"/>
				<path style="fill:#FFFFFF;" d="M199.549,503.986c0,1.101,0.892,1.993,1.993,1.993s1.993-0.892,1.993-1.993
					c0-1.101-0.892-1.993-1.993-1.993S199.549,502.885,199.549,503.986z"/>
				<path style="fill:#FFFFFF;" d="M278.124,522.206c0,1.101,0.892,1.993,1.993,1.993c1.101,0,1.993-0.892,1.993-1.993
					s-0.892-1.993-1.993-1.993C279.016,520.213,278.124,521.105,278.124,522.206z"/>
				<path style="fill:#FFFFFF;" d="M258.48,522.206c0,1.101,0.892,1.993,1.993,1.993c1.101,0,1.993-0.892,1.993-1.993
					s-0.892-1.993-1.993-1.993C259.372,520.213,258.48,521.105,258.48,522.206z"/>
				<path style="fill:#FFFFFF;" d="M238.836,522.206c0,1.101,0.892,1.993,1.993,1.993c1.101,0,1.993-0.892,1.993-1.993
					s-0.892-1.993-1.993-1.993C239.729,520.213,238.836,521.105,238.836,522.206z"/>
				<path style="fill:#FFFFFF;" d="M219.193,522.206c0,1.101,0.892,1.993,1.993,1.993c1.101,0,1.993-0.892,1.993-1.993
					s-0.892-1.993-1.993-1.993C220.085,520.213,219.193,521.105,219.193,522.206z"/>
				<path style="fill:#FFFFFF;" d="M199.549,522.206c0,1.101,0.892,1.993,1.993,1.993s1.993-0.892,1.993-1.993
					s-0.892-1.993-1.993-1.993S199.549,521.105,199.549,522.206z"/>
				<path style="fill:#FFFFFF;" d="M278.124,540.426c0,1.101,0.892,1.993,1.993,1.993c1.101,0,1.993-0.892,1.993-1.993
					c0-1.101-0.892-1.993-1.993-1.993C279.016,538.433,278.124,539.325,278.124,540.426z"/>
				<path style="fill:#FFFFFF;" d="M258.48,540.426c0,1.101,0.892,1.993,1.993,1.993c1.101,0,1.993-0.892,1.993-1.993
					c0-1.101-0.892-1.993-1.993-1.993C259.372,538.433,258.48,539.325,258.48,540.426z"/>
				<path style="fill:#FFFFFF;" d="M238.836,540.426c0,1.101,0.892,1.993,1.993,1.993c1.101,0,1.993-0.892,1.993-1.993
					c0-1.101-0.892-1.993-1.993-1.993C239.729,538.433,238.836,539.325,238.836,540.426z"/>
				<path style="fill:#FFFFFF;" d="M219.193,540.426c0,1.101,0.892,1.993,1.993,1.993c1.101,0,1.993-0.892,1.993-1.993
					c0-1.101-0.892-1.993-1.993-1.993C220.085,538.433,219.193,539.325,219.193,540.426z"/>
				<path style="fill:#FFFFFF;" d="M199.549,540.426c0,1.101,0.892,1.993,1.993,1.993s1.993-0.892,1.993-1.993
					c0-1.101-0.892-1.993-1.993-1.993S199.549,539.325,199.549,540.426z"/>
			</g>
			<path style="fill:#D335CE;" d="M338.667-23.198L338.667-23.198l0,137.989h137.989v0
				C476.655,38.582,414.876-23.198,338.667-23.198z"/>
			<path style="fill:#DD6547;" d="M708.447-16.972c-20.837,0-37.729,16.892-37.729,37.729c0,20.837,16.892,37.729,37.729,37.729
				c20.837,0,37.729-16.892,37.729-37.729C746.176-0.08,729.284-16.972,708.447-16.972z M708.447,37.858
				c-9.445,0-17.101-7.656-17.101-17.101c0-9.445,7.657-17.101,17.101-17.101c9.445,0,17.101,7.657,17.101,17.101
				C725.548,30.202,717.892,37.858,708.447,37.858z"/>
			<g>
				<g>
					<g>
						<path style="fill:#FFFFFF;" d="M109.373,416.534c1.508,11.104-0.12,22.431-4.851,32.895
							c-6.646,14.697-18.617,25.927-33.708,31.619c-15.091,5.694-31.496,5.169-46.194-1.477
							c-14.697-6.645-25.927-18.617-31.62-33.708c-11.755-31.15,4.032-66.061,35.186-77.814l5.868,15.555
							c-22.577,8.518-34.011,33.815-25.499,56.392c4.127,10.937,12.264,19.612,22.915,24.429c10.651,4.815,22.539,5.195,33.477,1.07
							c10.937-4.126,19.612-12.264,24.429-22.915c4.815-10.651,5.193-22.539,1.07-33.477l15.555-5.868
							C107.638,407.581,108.763,412.04,109.373,416.534z"/>
					</g>
				</g>
			</g>
			<rect x="240.829" y="184.638" style="fill:#DD6547;" width="142.398" height="147.314"/>
			<g>
				<g>
					<polygon style="fill:#FFFFFF;" points="351.978,274.69 340.274,262.69 328.573,274.69 315.539,261.326 318.199,259.394 
						328.573,270.03 340.274,258.03 351.978,270.03 363.678,258.03 375.379,270.03 387.083,258.03 398.79,270.03 410.494,258.031 
						422.206,270.031 432.588,259.394 435.248,261.326 422.206,274.689 410.494,262.689 398.79,274.69 387.083,262.69 
						375.379,274.69 363.678,262.69 					"/>
				</g>
				<g>
					<polygon style="fill:#FFFFFF;" points="351.978,290.625 340.274,278.625 328.573,290.625 315.539,277.26 318.199,275.329 
						328.573,285.965 340.274,273.965 351.978,285.965 363.678,273.965 375.379,285.965 387.083,273.965 398.79,285.966 
						410.494,273.966 422.206,285.966 432.588,275.328 435.248,277.261 422.206,290.624 410.494,278.624 398.79,290.624 
						387.083,278.624 375.379,290.625 363.678,278.625 					"/>
				</g>
			</g>
			<path style="fill:#FFFFFF;" d="M12.087,310.719l3.789-1.825c3.472-1.672,6.273-4.475,7.946-7.947l1.825-3.79l1.825,3.79
				c1.672,3.473,4.474,6.275,7.946,7.947l3.789,1.825l-3.789,1.825c-3.472,1.672-6.274,4.474-7.946,7.947l-1.825,3.79l-1.825-3.79
				c-1.672-3.473-4.474-6.275-7.946-7.947L12.087,310.719z"/>
			<path style="fill:#FFFFFF;" d="M301.979,408.941l3.789-1.825c3.472-1.672,6.274-4.474,7.946-7.947l1.825-3.79l1.825,3.79
				c1.672,3.473,4.473,6.275,7.946,7.947l3.789,1.825l-3.789,1.825c-3.472,1.672-6.274,4.474-7.946,7.947l-1.825,3.79l-1.825-3.79
				c-1.672-3.473-4.474-6.275-7.946-7.947L301.979,408.941z"/>
			<path style="fill:#FFFFFF;" d="M569.593,34.319l3.789-1.825c3.472-1.672,6.274-4.474,7.946-7.947l1.825-3.79l1.825,3.79
				c1.672,3.473,4.473,6.275,7.946,7.947l3.789,1.825l-3.789,1.825c-3.472,1.672-6.274,4.474-7.946,7.947l-1.825,3.79l-1.825-3.79
				c-1.672-3.473-4.474-6.275-7.946-7.947L569.593,34.319z"/>
			<path style="fill:#FFFFFF;" d="M711.989,256.08l3.789-1.825c3.472-1.672,6.273-4.474,7.946-7.947l1.825-3.79l1.825,3.79
				c1.672,3.473,4.473,6.275,7.946,7.947l3.789,1.825l-3.789,1.825c-3.472,1.672-6.274,4.474-7.946,7.947l-1.825,3.79l-1.825-3.79
				c-1.672-3.473-4.474-6.275-7.946-7.947L711.989,256.08z"/>
			<g>
				
					<rect x="361.894" y="134.242" transform="matrix(6.123234e-17 -1 1 6.123234e-17 284.2047 560.0671)" style="fill:#7462D1;" width="120.484" height="7.379"/>
				
					<rect x="380.162" y="134.242" transform="matrix(6.123234e-17 -1 1 6.123234e-17 302.473 578.3355)" style="fill:#7462D1;" width="120.484" height="7.379"/>
				
					<rect x="398.431" y="134.242" transform="matrix(6.123234e-17 -1 1 6.123234e-17 320.7412 596.6037)" style="fill:#7462D1;" width="120.484" height="7.379"/>
			</g>
			<g>
				
					<rect x="-39.851" y="258.982" transform="matrix(-1 -1.224647e-16 1.224647e-16 -1 40.7807 525.3416)" style="fill:#DD6547;" width="120.484" height="7.379"/>
				
					<rect x="-39.851" y="240.713" transform="matrix(-1 -1.224647e-16 1.224647e-16 -1 40.7807 488.805)" style="fill:#DD6547;" width="120.484" height="7.379"/>
				
					<rect x="-39.851" y="222.445" transform="matrix(-1 -1.224647e-16 1.224647e-16 -1 40.7807 452.2686)" style="fill:#DD6547;" width="120.484" height="7.379"/>
			</g>
			<g>
				
					<rect x="694.249" y="392.673" transform="matrix(-1 -1.224647e-16 1.224647e-16 -1 1508.9817 792.7255)" style="fill:#7462D1;" width="120.484" height="7.378"/>
				
					<rect x="694.249" y="374.405" transform="matrix(-1 -1.224647e-16 1.224647e-16 -1 1508.9817 756.1889)" style="fill:#7462D1;" width="120.484" height="7.379"/>
				
					<rect x="694.249" y="356.137" transform="matrix(-1 -1.224647e-16 1.224647e-16 -1 1508.9817 719.6525)" style="fill:#7462D1;" width="120.484" height="7.379"/>
			</g>
		</g>
	</g>
</g>
</svg>
